<mxfile host="app.diagrams.net" agent="Mozilla/5.0 (Windows NT 10.0; Win64; x64) AppleWebKit/537.36 (KHTML, like Gecko) Chrome/128.0.0.0 Safari/537.36 Edg/128.0.0.0" version="24.7.8">
  <diagram name="第 1 页" id="GZ0Rrj68OvILMXSFyvQP">
    <mxGraphModel dx="1024" dy="1133" grid="1" gridSize="10" guides="1" tooltips="1" connect="1" arrows="1" fold="1" page="1" pageScale="1" pageWidth="1169" pageHeight="827" math="0" shadow="0">
      <root>
        <mxCell id="0" />
        <mxCell id="1" parent="0" />
        <mxCell id="kitNNwtN_Ul_onwHvfq--1" value="Bitcoin Miner" style="shape=umlActor;verticalLabelPosition=bottom;verticalAlign=top;html=1;outlineConnect=0;" vertex="1" parent="1">
          <mxGeometry x="580" y="100" width="30" height="60" as="geometry" />
        </mxCell>
        <mxCell id="kitNNwtN_Ul_onwHvfq--6" style="edgeStyle=orthogonalEdgeStyle;rounded=0;orthogonalLoop=1;jettySize=auto;html=1;entryX=0.5;entryY=0;entryDx=0;entryDy=0;" edge="1" parent="1" source="kitNNwtN_Ul_onwHvfq--2" target="kitNNwtN_Ul_onwHvfq--3">
          <mxGeometry relative="1" as="geometry" />
        </mxCell>
        <mxCell id="kitNNwtN_Ul_onwHvfq--2" value="Bitcoin" style="rounded=0;whiteSpace=wrap;html=1;" vertex="1" parent="1">
          <mxGeometry x="745" y="100" width="120" height="60" as="geometry" />
        </mxCell>
        <mxCell id="kitNNwtN_Ul_onwHvfq--3" value="Bitcoin" style="rounded=0;whiteSpace=wrap;html=1;" vertex="1" parent="1">
          <mxGeometry x="745" y="480" width="120" height="60" as="geometry" />
        </mxCell>
        <mxCell id="kitNNwtN_Ul_onwHvfq--4" value="Bitcoin Miner" style="shape=umlActor;verticalLabelPosition=bottom;verticalAlign=top;html=1;outlineConnect=0;" vertex="1" parent="1">
          <mxGeometry x="580" y="480" width="30" height="60" as="geometry" />
        </mxCell>
        <mxCell id="kitNNwtN_Ul_onwHvfq--5" style="edgeStyle=orthogonalEdgeStyle;rounded=0;orthogonalLoop=1;jettySize=auto;html=1;entryX=0.5;entryY=0;entryDx=0;entryDy=0;entryPerimeter=0;" edge="1" parent="1" source="kitNNwtN_Ul_onwHvfq--1" target="kitNNwtN_Ul_onwHvfq--4">
          <mxGeometry relative="1" as="geometry" />
        </mxCell>
        <mxCell id="kitNNwtN_Ul_onwHvfq--7" value="Drivechain User" style="shape=umlActor;verticalLabelPosition=bottom;verticalAlign=top;html=1;outlineConnect=0;" vertex="1" parent="1">
          <mxGeometry x="156" y="100" width="30" height="60" as="geometry" />
        </mxCell>
        <mxCell id="kitNNwtN_Ul_onwHvfq--8" value="Drivechain User" style="shape=umlActor;verticalLabelPosition=bottom;verticalAlign=top;html=1;outlineConnect=0;" vertex="1" parent="1">
          <mxGeometry x="156" y="480" width="30" height="60" as="geometry" />
        </mxCell>
        <mxCell id="kitNNwtN_Ul_onwHvfq--9" style="edgeStyle=orthogonalEdgeStyle;rounded=0;orthogonalLoop=1;jettySize=auto;html=1;entryX=0.5;entryY=0;entryDx=0;entryDy=0;entryPerimeter=0;" edge="1" parent="1" source="kitNNwtN_Ul_onwHvfq--7" target="kitNNwtN_Ul_onwHvfq--8">
          <mxGeometry relative="1" as="geometry" />
        </mxCell>
        <mxCell id="kitNNwtN_Ul_onwHvfq--10" style="edgeStyle=orthogonalEdgeStyle;rounded=0;orthogonalLoop=1;jettySize=auto;html=1;entryX=0.5;entryY=0;entryDx=0;entryDy=0;" edge="1" parent="1" source="kitNNwtN_Ul_onwHvfq--11" target="kitNNwtN_Ul_onwHvfq--12">
          <mxGeometry relative="1" as="geometry" />
        </mxCell>
        <mxCell id="kitNNwtN_Ul_onwHvfq--11" value="Drivechain" style="rounded=0;whiteSpace=wrap;html=1;" vertex="1" parent="1">
          <mxGeometry x="330" y="110" width="120" height="60" as="geometry" />
        </mxCell>
        <mxCell id="kitNNwtN_Ul_onwHvfq--12" value="Drivechain" style="rounded=0;whiteSpace=wrap;html=1;" vertex="1" parent="1">
          <mxGeometry x="330" y="490" width="120" height="60" as="geometry" />
        </mxCell>
        <mxCell id="kitNNwtN_Ul_onwHvfq--13" value="" style="edgeStyle=none;orthogonalLoop=1;jettySize=auto;html=1;rounded=0;" edge="1" parent="1">
          <mxGeometry width="100" relative="1" as="geometry">
            <mxPoint x="170" y="220" as="sourcePoint" />
            <mxPoint x="390" y="220" as="targetPoint" />
            <Array as="points" />
          </mxGeometry>
        </mxCell>
        <mxCell id="kitNNwtN_Ul_onwHvfq--14" value="Withdrawl transaction" style="text;html=1;align=center;verticalAlign=middle;resizable=0;points=[];autosize=1;strokeColor=none;fillColor=none;" vertex="1" parent="1">
          <mxGeometry x="210" y="190" width="140" height="30" as="geometry" />
        </mxCell>
        <mxCell id="kitNNwtN_Ul_onwHvfq--15" value="" style="edgeStyle=none;orthogonalLoop=1;jettySize=auto;html=1;rounded=0;" edge="1" parent="1">
          <mxGeometry width="100" relative="1" as="geometry">
            <mxPoint x="390" y="260" as="sourcePoint" />
            <mxPoint x="590" y="260" as="targetPoint" />
            <Array as="points" />
          </mxGeometry>
        </mxCell>
        <mxCell id="kitNNwtN_Ul_onwHvfq--16" value="Get Bundle (Drivechain blocks)" style="text;html=1;align=center;verticalAlign=middle;resizable=0;points=[];autosize=1;strokeColor=none;fillColor=none;" vertex="1" parent="1">
          <mxGeometry x="390" y="230" width="190" height="30" as="geometry" />
        </mxCell>
        <mxCell id="kitNNwtN_Ul_onwHvfq--17" value="" style="edgeStyle=none;orthogonalLoop=1;jettySize=auto;html=1;rounded=0;" edge="1" parent="1">
          <mxGeometry width="100" relative="1" as="geometry">
            <mxPoint x="600" y="300" as="sourcePoint" />
            <mxPoint x="800" y="300" as="targetPoint" />
            <Array as="points" />
          </mxGeometry>
        </mxCell>
        <mxCell id="kitNNwtN_Ul_onwHvfq--18" value="M3 Propose Bundle" style="text;html=1;align=center;verticalAlign=middle;resizable=0;points=[];autosize=1;strokeColor=none;fillColor=none;" vertex="1" parent="1">
          <mxGeometry x="630" y="268" width="130" height="30" as="geometry" />
        </mxCell>
        <mxCell id="kitNNwtN_Ul_onwHvfq--21" value="" style="edgeStyle=none;orthogonalLoop=1;jettySize=auto;html=1;rounded=0;" edge="1" parent="1">
          <mxGeometry width="100" relative="1" as="geometry">
            <mxPoint x="601" y="354" as="sourcePoint" />
            <mxPoint x="801" y="354" as="targetPoint" />
            <Array as="points" />
          </mxGeometry>
        </mxCell>
        <mxCell id="kitNNwtN_Ul_onwHvfq--22" value="M4 Ack" style="text;html=1;align=center;verticalAlign=middle;resizable=0;points=[];autosize=1;strokeColor=none;fillColor=none;" vertex="1" parent="1">
          <mxGeometry x="666" y="322" width="60" height="30" as="geometry" />
        </mxCell>
        <mxCell id="kitNNwtN_Ul_onwHvfq--24" value="13150-26300" style="shape=umlFrame;whiteSpace=wrap;html=1;pointerEvents=0;" vertex="1" parent="1">
          <mxGeometry x="550" y="314" width="300" height="66" as="geometry" />
        </mxCell>
        <mxCell id="kitNNwtN_Ul_onwHvfq--25" value="" style="edgeStyle=none;orthogonalLoop=1;jettySize=auto;html=1;rounded=0;" edge="1" parent="1">
          <mxGeometry width="100" relative="1" as="geometry">
            <mxPoint x="601" y="424" as="sourcePoint" />
            <mxPoint x="801" y="424" as="targetPoint" />
            <Array as="points" />
          </mxGeometry>
        </mxCell>
        <mxCell id="kitNNwtN_Ul_onwHvfq--26" value="M6 Withdrawl Transaction" style="text;html=1;align=center;verticalAlign=middle;resizable=0;points=[];autosize=1;strokeColor=none;fillColor=none;" vertex="1" parent="1">
          <mxGeometry x="616" y="392" width="160" height="30" as="geometry" />
        </mxCell>
      </root>
    </mxGraphModel>
  </diagram>
</mxfile>
